<?xml version="1.0" encoding="iso-8859-1"?>
<!-- Uploaded to: SVG Repo, www.svgrepo.com, Generator: SVG Repo Mixer Tools -->
<svg fill="#000000" height="800px" width="800px" version="1.1" id="Layer_1" xmlns="http://www.w3.org/2000/svg" xmlns:xlink="http://www.w3.org/1999/xlink" 
	 viewBox="0 0 512 512" xml:space="preserve">
<g>
	<g>
		<path d="M230.679,162.569c-0.04-15.792-13.039-28.473-28.807-28.149l-36.258,0.744c-7.992,0.01-15.183,3.653-20.221,9.46
			l9.512,16.817l24.735-9.432l-35.917,26.517l-30.838-54.524c1.982-2.095,3.139-4.545,3.554-7.175
			c0.198-1.066,0.172-2.66,0.151-2.597c-0.002-0.056-0.006-0.113-0.008-0.17h6.921c2.103,0,3.807-1.704,3.807-3.807v-8.064
			c0-2.102-1.704-3.807-3.807-3.807h-7.664c-0.704-14.849-1.39-29.302-1.699-35.835c-0.096-2.029-1.768-3.627-3.8-3.627h-7.212
			c-2.034,0-3.703,1.596-3.8,3.627C99.071,68,98.55,78.982,97.976,91.101l-5.179-2.812c-3.26-1.77-7.341-0.564-9.111,2.698
			c-1.772,3.261-0.563,7.341,2.698,9.111l0.837,0.455l-7.602,14.511c-0.417,0.794-0.488,1.725-0.202,2.575
			c0.288,0.85,0.909,1.547,1.722,1.925c0.017,0.008,0.032,0.016,0.049,0.023c0,0-2.767,6.14-3.192,8.329
			c-0.572,2.951-0.008,8.1,2.106,11.838l42.119,74.469c5.371,9.493,17.83,12.119,26.569,5.664l52.398-38.689l-41.621,53.283
			c-5.412,6.928-13.056,10.765-21.192,11.249v29.787l46.518,5.416c3.26-6.943,10.3-11.773,18.464-11.773h27.554L230.679,162.569z"/>
	</g>
</g>
<g>
	<g>
		<path d="M208.84,374.945c-11.899,0-21.943-8.072-24.958-19.026v133.048c0,12.72,10.311,23.033,23.032,23.033
			s23.032-10.312,23.032-23.033V364.021C225.179,370.745,217.381,374.945,208.84,374.945z"/>
	</g>
</g>
<g>
	<g>
		<path d="M182.952,315.692v-18.074l-44.575-5.188v196.538c0,12.72,10.971,23.033,23.692,23.033c3.445,0,6.7-0.777,9.635-2.132
			c-3.641-6.119-5.737-13.263-5.737-20.901V315.961L182.952,315.692z"/>
	</g>
</g>
<g>
	<g>
		<path d="M234.935,285.956h-31.576c-1.993,0-3.609,1.616-3.609,3.609v59.492c0,5.02,4.071,9.091,9.091,9.091
			c3.889,0,7.347-2.474,8.604-6.155l20.906-61.262C239.147,288.391,237.406,285.956,234.935,285.956z"/>
	</g>
</g>
<g>
	<g>
		<path d="M434.003,127.914c-0.424-2.189-3.192-8.329-3.192-8.329c0.017-0.008,0.032-0.016,0.049-0.024
			c0.813-0.378,1.436-1.075,1.722-1.924c0.288-0.85,0.215-1.779-0.202-2.575l-7.6-14.511l0.837-0.455
			c3.261-1.77,4.469-5.85,2.698-9.111c-1.771-3.262-5.851-4.468-9.111-2.698l-5.179,2.812c-0.574-12.119-1.095-23.101-1.354-28.556
			c-0.096-2.031-1.766-3.627-3.8-3.627h-7.212c-2.031,0-3.703,1.598-3.8,3.627c-0.31,6.533-0.994,20.986-1.699,35.835h-7.664
			c-2.103,0-3.807,1.704-3.807,3.807v8.064c0,2.103,1.704,3.807,3.807,3.807h6.921c-0.002,0.056-0.006,0.113-0.008,0.169
			c-0.021-0.063-0.046,1.531,0.151,2.597c0.415,2.63,1.572,5.08,3.554,7.175l-30.838,54.524l-35.917-26.517l24.735,9.432
			l9.512-16.817c-5.038-5.807-12.229-9.45-20.221-9.46l-36.258-0.744c-15.767-0.324-28.766,12.359-28.807,28.149l-0.234,106.59
			h27.554c8.164,0,15.204,4.83,18.464,11.773l46.518-5.417v-29.787c-8.137-0.484-15.781-4.32-21.192-11.249l-41.621-53.283
			l52.398,38.687c8.739,6.455,21.198,3.829,26.569-5.664l42.119-74.469C434.011,136.013,434.575,130.864,434.003,127.914z"/>
	</g>
</g>
<g>
	<g>
		<path d="M303.16,374.945c-8.542,0-16.339-4.199-21.107-10.924v124.946c0,12.72,10.312,23.033,23.032,23.033
			s23.032-10.312,23.032-23.033V355.919C325.103,366.873,315.059,374.945,303.16,374.945z"/>
	</g>
</g>
<g>
	<g>
		<path d="M329.048,297.617v18.074h0l16.985,0.27v173.006c0,7.636-2.097,14.781-5.737,20.901c2.934,1.355,6.19,2.132,9.635,2.132
			c12.72,0,23.692-10.312,23.692-23.033V292.428L329.048,297.617z"/>
	</g>
</g>
<g>
	<g>
		<path d="M395.194,46.493c-2.436-7.916-10.833-12.355-18.739-9.922c-3.307,1.017-6.636,1.905-9.976,2.72l-9.404-35.123
			c-0.783-2.925-3.745-4.704-6.696-4.021l-17.474,4.04c-4.879,1.129-9.951,1.129-14.83,0l-17.474-4.043
			c-2.951-0.682-5.912,1.096-6.696,4.021l-9.404,35.123c-3.34-0.815-6.67-1.702-9.977-2.72c-7.712-2.374-15.86,1.796-18.526,9.334
			c-2.665-7.538-10.813-11.708-18.526-9.333c-3.307,1.017-6.636,1.904-9.977,2.72l-9.404-35.123
			c-0.784-2.926-3.745-4.704-6.695-4.021l-17.474,4.043c-4.879,1.129-9.951,1.129-14.83,0l-17.474-4.043
			c-2.951-0.682-5.912,1.096-6.695,4.021l-9.404,35.123c-3.339-0.815-6.67-1.703-9.976-2.72c-7.907-2.433-16.305,2.007-18.739,9.922
			c-2.435,7.915,2.008,16.305,9.923,18.739c6.403,1.97,12.867,3.61,19.37,4.935c-0.247,1.822-0.385,3.679-0.382,5.569
			c0.03,22.443,18.248,40.612,40.69,40.583c22.443-0.029,40.612-18.247,40.583-40.691c-0.002-1.832-0.138-3.633-0.375-5.401
			c6.607-1.335,13.174-2.996,19.677-4.996c4.711-1.449,8.177-5.015,9.709-9.328c1.533,4.313,4.998,7.878,9.709,9.327
			c6.503,2,13.07,3.661,19.677,4.996c-0.236,1.77-0.373,3.57-0.375,5.403c-0.029,22.443,18.14,40.66,40.583,40.691
			c22.443,0.029,40.66-18.14,40.69-40.583c0.002-1.89-0.134-3.747-0.382-5.569c6.503-1.325,12.966-2.965,19.37-4.935
			C393.186,62.798,397.628,54.407,395.194,46.493z"/>
	</g>
</g>
<g>
	<g>
		<path d="M308.641,285.956h-31.576c-2.473,0-4.214,2.436-3.415,4.775l20.906,61.262c1.256,3.681,4.714,6.155,8.604,6.155
			c5.02,0,9.091-4.071,9.091-9.091v-59.492C312.251,287.572,310.635,285.956,308.641,285.956z"/>
	</g>
</g>
</svg>